<?xml version="1.0" encoding="iso-8859-1"?>
<!-- Uploaded to: SVG Repo, www.svgrepo.com, Generator: SVG Repo Mixer Tools -->
<svg fill="#000000" height="800px" width="800px" version="1.1" id="Layer_1" xmlns="http://www.w3.org/2000/svg" xmlns:xlink="http://www.w3.org/1999/xlink" 
	 viewBox="0 0 392.727 392.727" xml:space="preserve">
<g>
	<g>
		<path d="M108.671,298.731H43.572C19.523,298.731,0,318.255,0,342.303v39.434c0,6.012,4.849,10.925,10.925,10.925h130.392
			c6.012,0,10.925-4.849,10.925-10.925v-39.434C152.242,318.255,132.655,298.731,108.671,298.731z M21.786,370.812v-28.509
			c0-12.024,9.826-21.786,21.786-21.786h64.97c12.024,0,21.786,9.826,21.786,21.786v28.509H21.786z"/>
	</g>
</g>
<g>
	<g>
		<path d="M76.089,204.541c-22.174,0-40.145,18.036-40.145,40.21c0,22.174,17.972,40.21,40.145,40.21
			c22.174,0,40.21-18.036,40.21-40.21S98.263,204.541,76.089,204.541z M76.089,263.111c-10.085,0-18.36-8.275-18.36-18.36
			c0-10.085,8.275-18.36,18.36-18.36c10.15,0,18.36,8.275,18.36,18.36C94.448,254.901,86.174,263.111,76.089,263.111z"/>
	</g>
</g>
<g>
	<g>
		<path d="M348.962,298.731h-64.97c-24.049,0-43.572,19.523-43.572,43.572v39.434c0,6.012,4.848,10.925,10.925,10.925h130.457
			c6.012,0,10.925-4.849,10.925-10.925v-39.434C392.533,318.255,373.01,298.731,348.962,298.731z M262.077,370.812v-28.509
			c0-12.024,9.826-21.786,21.786-21.786h64.97c12.024,0,21.786,9.826,21.786,21.786v28.509H262.077z"/>
	</g>
</g>
<g>
	<g>
		<path d="M316.444,204.541c-22.174,0-40.21,18.036-40.21,40.21s18.036,40.21,40.21,40.21c22.174,0,40.21-18.036,40.21-40.21
			S338.618,204.541,316.444,204.541z M316.444,263.111c-10.15,0-18.36-8.275-18.36-18.36c0-10.085,8.21-18.36,18.36-18.36
			s18.36,8.275,18.36,18.36C334.804,254.901,326.529,263.111,316.444,263.111z"/>
	</g>
</g>
<g>
	<g>
		<path d="M196.267,0.065c-22.174,0-40.21,18.036-40.21,40.21c0,22.174,18.036,40.145,40.21,40.145s40.21-18.036,40.21-40.21
			C236.477,18.036,218.44,0.065,196.267,0.065z M196.267,58.634c-10.149,0-18.36-8.275-18.36-18.36s8.21-18.424,18.36-18.424
			c10.15,0,18.36,8.275,18.36,18.36S206.416,58.634,196.267,58.634z"/>
	</g>
</g>
<g>
	<g>
		<path d="M228.784,94.125h-64.97c-24.048,0-43.572,19.523-43.572,43.572v39.434c0,6.012,4.848,10.925,10.925,10.925h54.303v35.556
			l-43.442,43.442c-4.267,4.267-4.267,11.119,0,15.451c4.267,4.267,11.119,4.267,15.451,0l38.917-38.917l38.917,38.917
			c6.982,5.754,13.188,2.133,15.257,0c4.267-4.267,4.267-11.119,0-15.451l-43.442-43.442v-35.556h54.303
			c6.012,0,10.925-4.849,10.925-10.925v-39.434C272.356,113.648,252.832,94.125,228.784,94.125z M250.505,166.271H141.964v-28.509
			c0-12.024,9.826-21.786,21.786-21.786h64.97c12.024,0,21.786,9.826,21.786,21.786V166.271z"/>
	</g>
</g>
</svg>